# xmcd
#
# Track frame offsets: 
#        150
#        15467
#        28187
#        38575
#        54765
#        69357
#        82360
#        94007
#        107475
#        122140
#        133100
#        150835
#
# Disc length: 2169 seconds
#
# Revision: 0
# Processed by: cddbd v1.5.1PL0 Copyright (c) Steve Scherf et al.
# Submitted via: ExactAudioCopy v0.95b2
#
DISCID=8c08770c
DTITLE=Five For The Gospel - Look At What The Lord Can Do
DYEAR=1995
DGENRE=Country
TTITLE0=Look At What The Lord Can Do
TTITLE1=He Did It All
TTITLE2=Standing And Looking
TTITLE3=My Anchored Soul
TTITLE4=Let Me Introduce You To Jesus
TTITLE5=All I'm Taking With Me Is The Blood
TTITLE6=I'll Live Again
TTITLE7=Harbor Of His Grace
TTITLE8=One Of These Days
TTITLE9=Follow Me
TTITLE10=Mary's Little Lamb
TTITLE11=You Go To Your Church
EXTD=
EXTT0=
EXTT1=
EXTT2=
EXTT3=
EXTT4=
EXTT5=
EXTT6=
EXTT7=
EXTT8=
EXTT9=
EXTT10=
EXTT11=
PLAYORDER=
